<?xml version="1.0" encoding="UTF-8" standalone="no"?>

<!-- Created with Inkscape (http://www.inkscape.org/) -->
<svg width="64" version="1.1" xmlns="http://www.w3.org/2000/svg" height="64" xmlns:xlink="http://www.w3.org/1999/xlink" xmlns:inkscape="http://www.inkscape.org/namespaces/inkscape">
 <defs id="defs3811">
  <linearGradient inkscape:collect="always" xlink:href="#linearGradient4300-1" id="linearGradient4416" y1="43.999989" y2="6.999989" x2="0" gradientUnits="userSpaceOnUse" gradientTransform="matrix(-1.4054053 0 0 1.4054053 804.69502 154.09579)"/>
  <linearGradient inkscape:collect="always" id="linearGradient4227">
   <stop style="stop-color:#292c2f" id="stop4229"/>
   <stop offset="1" style="stop-opacity:0" id="stop4231"/>
  </linearGradient>
  <linearGradient inkscape:collect="always" id="linearGradient4191" xlink:href="#linearGradient4227" y1="9" y2="23" x1="9.00001" gradientUnits="userSpaceOnUse" x2="23.00004" gradientTransform="matrix(2 0 0 2 -0.99999 -5)"/>
  <linearGradient inkscape:collect="always" id="linearGradient4298">
   <stop style="stop-color:#b985ce" id="stop4300"/>
   <stop offset="1" style="stop-color:#e2cdeb" id="stop4302"/>
  </linearGradient>
  <linearGradient inkscape:collect="always" id="linearGradient4300-1">
   <stop style="stop-color:#8e44ad" id="stop4302-0"/>
   <stop offset="1" style="stop-color:#9b59b6" id="stop4304-6"/>
  </linearGradient>
  <linearGradient inkscape:collect="always" xlink:href="#linearGradient4298" id="linearGradient4244" y1="38" y2="12.999999" x2="0" gradientUnits="userSpaceOnUse"/>
 </defs>
 <metadata id="metadata3814"/>
 <g inkscape:label="Layer 1" inkscape:groupmode="layer" id="layer1" transform="matrix(1 0 0 1 -736.85718 -157.93361)">
  <path inkscape:connector-curvature="0" style="fill:url(#linearGradient4416);fill-rule:evenodd" id="path4445" d="m 794.85718,163.93361 0,37.94594 -25.29727,0 -14.05412,14.05406 0,-14.05406 -12.64861,0 0,-37.94594 z"/>
  <path inkscape:connector-curvature="0" style="fill:url(#linearGradient4191);opacity:0.2;fill-rule:evenodd" id="path4184" d="M 36,14.929687 29,16.464843 24,20 l 6,6 -1,3 4.000002,4.000001 -4,4 6.94531,6.945311 22.054688,0 0,-7.015625 z" transform="matrix(1 0 0 1 736.85718 157.93361)"/>
  <path style="fill:#713e88;fill-rule:evenodd" id="path4256" d="M 6 42.945312 L 6 43.945312 L 18.648438 43.945312 L 18.648438 42.945312 L 6 42.945312 z M 32.703125 42.945312 L 18.648438 57 L 18.648438 58 L 32.703125 43.945312 L 58 43.945312 L 58 42.945312 L 32.703125 42.945312 z " transform="matrix(1 0 0 1 736.85718 157.93361)"/>
  <path style="fill:url(#linearGradient4244);stroke-linecap:round;stroke-linejoin:round;stroke-width:2" id="rect4169" d="M 31 13 C 29.05556 13 27.239997 13.681878 25.960938 14.960938 C 24.681878 16.239997 24 18.05556 24 20 L 28 20 C 28 18.94445 28.318133 18.260002 28.789062 17.789062 C 29.260003 17.318122 29.94445 17 31 17 C 32.05556 17 32.739997 17.318122 33.210938 17.789062 C 33.681878 18.260003 34 18.94445 34 20 C 34 20.91667 33.819305 21.306644 33.578125 21.652344 C 33.336945 21.998034 32.941856 22.324488 32.353516 22.736328 C 31.765166 23.148168 30.983639 23.622604 30.261719 24.464844 C 29.539799 25.307084 29 26.58334 29 28 L 29 29 L 33 29 L 33 28 C 33 27.41667 33.083198 27.317916 33.298828 27.066406 C 33.514408 26.814896 33.984824 26.476822 34.646484 26.013672 C 35.308134 25.550512 36.163055 24.939466 36.859375 23.941406 C 37.555695 22.943346 38 21.58334 38 20 C 38 18.05556 37.318133 16.239998 36.039062 14.960938 C 34.760003 13.681878 32.94445 13 31 13 z M 29 33 L 29 37 L 33 37 L 33 33 L 29 33 z " transform="matrix(1 0 0 1 736.85718 157.93361)"/>
 </g>
</svg>
