<svg height="48" width="48" xmlns="http://www.w3.org/2000/svg" xmlns:xlink="http://www.w3.org/1999/xlink"><linearGradient id="c" gradientUnits="userSpaceOnUse" x1="9" x2="38" xlink:href="#a" y1="9" y2="38"/><linearGradient id="a" gradientUnits="userSpaceOnUse" x1="34" x2="44" y1="19.008" y2="29.008"><stop offset="0" stop-color="#292c2f"/><stop offset="1" stop-opacity="0"/></linearGradient><linearGradient id="b" gradientUnits="userSpaceOnUse" x1="4" x2="4" y1="44" y2="4"><stop offset="0" stop-color="#197cf1"/><stop offset="1" stop-color="#20bcfa"/></linearGradient><linearGradient id="d" gradientUnits="userSpaceOnUse" x1="4" x2="4" y1="44" y2="4"><stop offset="0" stop-color="#54d883"/><stop offset="1" stop-color="#abf9c7"/></linearGradient><circle cx="24" cy="24" fill="url(#b)" r="20"/><path d="M24 4A20 20 0 0 0 4.1 22H7l3 3 2 1 10.969 17.95A20 20 0 0 0 24 44a20 20 0 0 0 20-20A20 20 0 0 0 24 4z" fill="url(#c)" opacity=".2"/><path d="M42.586 16.633L36 26l6.215 6.215A20 20 0 0 0 44 24a20 20 0 0 0-1.36-7.246 20 20 0 0 0-.054-.121z" fill="url(#a)" fill-rule="evenodd" opacity=".2"/><path d="M24 4a20 20 0 0 0-1.902.11 20 20 0 0 0-.254.03 20 20 0 0 0-3.219.637v-.04a20 20 0 0 0-9.7 6.14h.01a20 20 0 0 0-3.58 5.945L7 16h4v1l1 1v-2l1-1 1-1h1v-1l1-1 2-1 1-1 2-1v1l2-1h-1V8l-1-1h4l-1 1 3 1-1-2V5l-.947-.947A20 20 0 0 0 24 4zm15 6.81V13h1.691A20 20 0 0 0 39 10.81zm-27.938.067h.061L11 11l.063-.123zm30.024 2.762L40 14l-2 1v1l-2 2-1 2v4l1 2 2 1 1 1 4.717-.785a20 20 0 0 0 .002-.022 20 20 0 0 0 .209-1.752A20 20 0 0 0 44 24a20 20 0 0 0-.09-1.74 20 20 0 0 0-.097-.809 20 20 0 0 0-.19-1.234 20 20 0 0 0-.135-.598 20 20 0 0 0-.357-1.394 20 20 0 0 0-.145-.432 20 20 0 0 0-.539-1.473 20 20 0 0 0-.148-.33 20 20 0 0 0-.74-1.525 20 20 0 0 0-.473-.826zM7 20l-1 1H5l-.65-.65a20 20 0 0 0 0 .005 20 20 0 0 0-.266 1.977 20 20 0 0 0-.002.03L6 23l2 1 1 1 1 1h2v2l-1 1-1 2v1l1 1 1 1 1 2 1 1 2 1v4.32a20 20 0 0 0 .006.002 20 20 0 0 0 1.697.645 20 20 0 0 0 .192.068 20 20 0 0 0 1.513.408 20 20 0 0 0 .451.116 20 20 0 0 0 1.32.216 20 20 0 0 0 .68.104 20 20 0 0 0 1.15.072A20 20 0 0 0 24 44a20 20 0 0 0 1.018-.037L26 42v-1l2-1 1-1 1-4 1-1v-2l-2-1h-1l-2-1h-1l-1-2-1-1h-2l-2-2h-2l-3-1-1 2-2-1h-1v-2l-2-1 1-2z" fill="url(#d)"/><path d="M4.051 23.5c-.004.17-.051.329-.051.5 0 11.08 8.92 20 20 20s20-8.92 20-20c0-.171-.047-.33-.051-.5-.03 1.206-.121 2.398-.354 3.541a19.89 19.89 0 0 1-5.441 10.113 19.95 19.95 0 0 1-6.355 4.279 19.817 19.817 0 0 1-3.758 1.162 20.204 20.204 0 0 1-4.04.404c-1.385 0-2.737-.139-4.04-.404a19.89 19.89 0 0 1-10.113-5.441 19.95 19.95 0 0 1-4.279-6.355 19.817 19.817 0 0 1-1.162-3.758c-.233-1.143-.323-2.335-.354-3.541" opacity=".2"/></svg>