<svg xmlns="http://www.w3.org/2000/svg" viewBox="0 0 22 22">
  <defs id="defs3051">
    <style type="text/css" id="current-color-scheme">
      .ColorScheme-Text {
        color:#232629
      }
      </style>
  </defs>
    <path
       style="fill:currentColor"
       d="M 3 3 L 3 19 L 19 19 L 19 3 L 3 3 z M 14 4 L 18 4 L 18 5 L 14 5 L 14 4 z M 4 7 L 18 7 L 18 8 L 4 8 L 4 7 z M 14 10 L 18 10 L 18 11 L 14 11 L 14 10 z M 4 13 L 18 13 L 18 14 L 4 14 L 4 13 z M 14 16 L 18 16 L 18 17 L 14 17 L 14 16 z "
       class="ColorScheme-Text" />
</svg>
