<?xml version="1.0" encoding="UTF-8" standalone="no"?>
<svg
   height="32"
   width="32"
   version="1.1"
   id="svg38"
   sodipodi:docname="systemsettings.svg"
   inkscape:version="1.1.1 (3bf5ae0d25, 2021-09-20, custom)"
   xmlns:inkscape="http://www.inkscape.org/namespaces/inkscape"
   xmlns:sodipodi="http://sodipodi.sourceforge.net/DTD/sodipodi-0.dtd"
   xmlns="http://www.w3.org/2000/svg"
   xmlns:svg="http://www.w3.org/2000/svg">
  <defs
     id="defs42">
    <style
       id="current-color-scheme"
       type="text/css">      .ColorScheme-Highlight {
        color:#3593e6;
      }</style>
  </defs>
  <sodipodi:namedview
     id="namedview40"
     pagecolor="#505050"
     bordercolor="#eeeeee"
     borderopacity="1"
     inkscape:pageshadow="0"
     inkscape:pageopacity="0"
     inkscape:pagecheckerboard="0"
     showgrid="false"
     inkscape:zoom="15.78125"
     inkscape:cx="12.356436"
     inkscape:cy="15.968317"
     inkscape:window-width="1920"
     inkscape:window-height="1053"
     inkscape:window-x="0"
     inkscape:window-y="0"
     inkscape:window-maximized="1"
     inkscape:current-layer="g24" />
  <linearGradient
     id="a"
     gradientUnits="userSpaceOnUse"
     x2="17"
     y1="-1"
     y2="18">
    <stop
       offset="0"
       stop-color="#fff"
       id="stop2" />
    <stop
       offset="1"
       stop-color="#fff"
       stop-opacity="0"
       id="stop4" />
  </linearGradient>
  <linearGradient
     id="b"
     gradientUnits="userSpaceOnUse"
     x1="9"
     x2="30"
     y1="9"
     y2="30">
    <stop
       offset="0"
       id="stop7" />
    <stop
       offset="1"
       stop-opacity="0"
       id="stop9" />
  </linearGradient>
  <rect
     fill="#2d3033"
     height="28"
     rx="1"
     width="28"
     x="2"
     y="2"
     id="rect12" />
  <rect
     fill="url(#a)"
     height="28"
     opacity=".276"
     rx="1"
     width="28"
     x="2"
     y="2"
     id="rect14" />
  <path
     d="M23.414 10.586L22 12H6l-.729.729L11 18.455V20H6l-.729.729L14.545 30H29c.554 0 1-.446 1-1V17.172z"
     fill="url(#b)"
     opacity=".4"
     id="path16" />
  <g
     transform="translate(-30)"
     id="g24">
    <path
       d="M36 19c-1.352-.02-1.352 2.02 0 2h6v-2z"
       id="path18"
       class="ColorScheme-Highlight"
       style="fill:currentColor" />
    <circle
       cx="42"
       cy="20"
       fill="#fafafa"
       r="2"
       id="circle20" />
    <path
       d="M42 19v2h14c1.352.02 1.352-2.02 0-2z"
       fill="#fcfcfc"
       opacity=".2"
       id="path22" />
  </g>
  <g
     transform="translate(-30)"
     id="g32">
    <path
       d="M36 11c-1.352-.02-1.352 2.02 0 2h16v-2z"
       id="path26"
       class="ColorScheme-Highlight"
       style="fill:currentColor" />
    <circle
       cx="52"
       cy="12"
       fill="#fafafa"
       r="2"
       id="circle28" />
    <path
       d="M52 11v2h4c1.352.02 1.352-2.02 0-2z"
       fill="#fcfcfc"
       opacity=".2"
       id="path30" />
  </g>
  <path
     d="M2 28v1c0 .554.446 1 1 1h26c.554 0 1-.446 1-1v-1c0 .554-.446 1-1 1H3c-.554 0-1-.446-1-1z"
     opacity=".3"
     id="path34" />
  <path
     d="M2 4V3c0-.554.446-1 1-1h26c.554 0 1 .446 1 1v1c0-.554-.446-1-1-1H3c-.554 0-1 .446-1 1z"
     fill="#fff"
     opacity=".3"
     id="path36" />
</svg>
