<svg xmlns="http://www.w3.org/2000/svg" version="1.1" viewBox="0 0 24 24" width="24" height="24">
  <defs>
    <style type="text/css" id="current-color-scheme">.ColorScheme-Text {
        color:#232629;
      }</style>
  </defs>
  <g transform="translate(1,1)">
    <path class="ColorScheme-Text" fill="currentColor" d="m10.998047 6 4 4h-2v5h-4.0000001v-5h-2zm5.481971-0.4945913-2.480469 0.298829 0.5-0.867188c-2.9696-1.7145-6.7364095-1.027347-8.9121085 1.623047-2.1757 2.650394-2.113716 6.4760703 0.146484 9.0546873l-0.751953 0.658203c-2.5783-2.941475-2.649769-7.3262723-0.167969-10.349609 2.4818-3.023285 6.7980465-3.807312 10.185546-1.851562l0.5-0.865235zm2.517578 5.3671883c0.02996 1.841775-0.573553 3.69341-1.814453 5.205078-2.4819 3.023284-6.796094 3.807312-10.183594 1.851562l-0.5 0.865235-0.982422-2.298828 2.482422-0.298829-0.5 0.865235c2.9695995 1.7145 6.7344565 1.029299 8.9101565-1.621094s2.113715-6.4760703-0.146485-9.0546873l0.751953-0.658203c1.28915 1.470738 1.95246 3.302755 1.982422 5.1445313z"/>
  </g>
</svg>
